<svg width="32" height="33" viewBox="0 0 32 33" fill="none" xmlns="http://www.w3.org/2000/svg">
<path d="M16.6667 16.4335C17.3111 15.7224 17.8058 14.9113 18.1507 14.0002C18.4956 13.0891 18.6676 12.1446 18.6667 11.1668C18.6667 10.1891 18.4942 9.24461 18.1493 8.3335C17.8044 7.42238 17.3102 6.61127 16.6667 5.90016C18 6.07794 19.1111 6.66683 20 7.66683C20.8889 8.66683 21.3333 9.8335 21.3333 11.1668C21.3333 12.5002 20.8889 13.6668 20 14.6668C19.1111 15.6668 18 16.2557 16.6667 16.4335ZM24 27.1668V23.1668C24 22.3668 23.8222 21.6055 23.4667 20.8828C23.1111 20.1602 22.6444 19.5215 22.0667 18.9668C23.2 19.3668 24.2502 19.8837 25.2173 20.5175C26.1844 21.1513 26.6676 22.0344 26.6667 23.1668V27.1668H24ZM26.6667 17.8335V15.1668H24V12.5002H26.6667V9.8335H29.3333V12.5002H32V15.1668H29.3333V17.8335H26.6667ZM10.6667 16.5002C9.2 16.5002 7.94445 15.9779 6.9 14.9335C5.85556 13.8891 5.33333 12.6335 5.33333 11.1668C5.33333 9.70016 5.85556 8.44461 6.9 7.40016C7.94445 6.35572 9.2 5.8335 10.6667 5.8335C12.1333 5.8335 13.3889 6.35572 14.4333 7.40016C15.4778 8.44461 16 9.70016 16 11.1668C16 12.6335 15.4778 13.8891 14.4333 14.9335C13.3889 15.9779 12.1333 16.5002 10.6667 16.5002ZM0 27.1668V23.4335C0 22.6779 0.194667 21.9833 0.584 21.3495C0.973333 20.7157 1.48978 20.2326 2.13333 19.9002C3.51111 19.2113 4.91111 18.6944 6.33333 18.3495C7.75556 18.0046 9.2 17.8326 10.6667 17.8335C12.1333 17.8335 13.5778 18.0059 15 18.3508C16.4222 18.6957 17.8222 19.2122 19.2 19.9002C19.8444 20.2335 20.3613 20.7171 20.7507 21.3508C21.14 21.9846 21.3342 22.6788 21.3333 23.4335V27.1668H0Z" fill="white"/>
</svg>
