<svg width="48" height="49" viewBox="0 0 48 49" fill="none" xmlns="http://www.w3.org/2000/svg">
<path d="M0.00198132 23.778C0.00198132 10.398 10.482 0.5 24.002 0.5C37.522 0.5 48 10.4 48 23.778C48 37.156 37.52 47.054 24 47.054C21.58 47.054 19.24 46.734 17.06 46.134C16.6345 46.0195 16.1825 46.0548 15.78 46.234L11 48.334C10.7118 48.4623 10.3965 48.5176 10.0819 48.495C9.76732 48.4724 9.46312 48.3727 9.19622 48.2047C8.92931 48.0366 8.70791 47.8054 8.5516 47.5315C8.39528 47.2575 8.30887 46.9493 8.29998 46.634L8.15998 42.354C8.14913 42.0961 8.08694 41.843 7.97704 41.6095C7.86715 41.376 7.71176 41.1667 7.51998 40.994C5.11521 38.824 3.20093 36.1661 1.90487 33.1977C0.608801 30.2293 -0.0392407 27.0187 0.00398132 23.78L0.00198132 23.778ZM16.642 19.398L9.60198 30.598C8.90198 31.658 10.242 32.876 11.242 32.098L18.822 26.358C19.342 25.958 20.022 25.958 20.562 26.358L26.162 30.558C27.842 31.818 30.242 31.358 31.362 29.598L38.402 18.398C39.102 17.338 37.762 16.138 36.762 16.898L29.182 22.638C28.682 23.038 27.982 23.038 27.462 22.638L21.862 18.438C21.4637 18.1372 21.0073 17.9224 20.5216 17.8074C20.036 17.6924 19.5317 17.6796 19.0408 17.7698C18.55 17.8601 18.0832 18.0515 17.6703 18.3318C17.2573 18.6121 16.9071 18.9752 16.642 19.398Z" fill="#F4F4F4"/>
</svg>
