<svg width="32" height="33" viewBox="0 0 32 33" fill="none" xmlns="http://www.w3.org/2000/svg">
<path d="M2.6665 29.8335C2.6665 27.0045 3.79031 24.2914 5.7907 22.291C7.79109 20.2906 10.5042 19.1668 13.3332 19.1668C16.1621 19.1668 18.8753 20.2906 20.8756 22.291C22.876 24.2914 23.9998 27.0045 23.9998 29.8335H2.6665ZM13.3332 17.8335C8.91317 17.8335 5.33317 14.2535 5.33317 9.8335C5.33317 5.4135 8.91317 1.8335 13.3332 1.8335C17.7532 1.8335 21.3332 5.4135 21.3332 9.8335C21.3332 14.2535 17.7532 17.8335 13.3332 17.8335ZM23.1505 20.8108C25.19 21.335 27.0122 22.4893 28.3576 24.1093C29.703 25.7293 30.5031 27.7324 30.6438 29.8335H26.6665C26.6665 26.3535 25.3332 23.1855 23.1505 20.8108ZM20.4532 17.7762C21.5705 16.7768 22.464 15.5526 23.0753 14.1838C23.6865 12.815 24.0015 11.3325 23.9998 9.8335C24.0027 8.01145 23.5366 6.21933 22.6465 4.6295C24.1567 4.93295 25.5152 5.74999 26.4911 6.94176C27.467 8.13352 28.0001 9.62646 27.9998 11.1668C28.0002 12.1168 27.7975 13.0558 27.4053 13.9211C27.0131 14.7863 26.4405 15.5577 25.7259 16.1836C25.0113 16.8094 24.1711 17.2753 23.2617 17.55C22.3524 17.8247 21.3948 17.9018 20.4532 17.7762Z" fill="white"/>
</svg>
