<svg width="32" height="33" viewBox="0 0 32 33" fill="none" xmlns="http://www.w3.org/2000/svg">
<path d="M16 0.5C24.8 0.5 32 7.7 32 16.5C32 25.3 24.8 32.5 16 32.5C7.2 32.5 0 25.3 0 16.5C0 7.7 7.2 0.5 16 0.5ZM20.672 17.796C18.944 17.796 17.52 18.996 17.136 20.596C16.272 20.228 15.456 20.324 14.864 20.58C14.48 18.98 13.04 17.796 11.328 17.796C9.328 17.796 7.712 19.412 7.712 21.412C7.712 23.412 9.328 25.028 11.328 25.028C13.248 25.028 14.784 23.572 14.928 21.7C15.248 21.492 16.064 21.076 17.072 21.716C17.1395 22.6531 17.5693 23.5271 18.2705 24.1526C18.9716 24.778 19.8888 25.1057 20.8275 25.0662C21.7663 25.0266 22.6527 24.623 23.2987 23.9407C23.9447 23.2585 24.2996 22.3515 24.288 21.412C24.288 19.412 22.672 17.796 20.672 17.796ZM11.328 18.82C12.8 18.82 13.92 19.988 13.92 21.412C13.92 22.836 12.8 24.004 11.328 24.004C9.904 24.004 8.736 22.836 8.736 21.412C8.736 19.988 9.904 18.82 11.328 18.82ZM20.672 18.82C22.096 18.82 23.264 19.988 23.264 21.412C23.264 22.836 22.096 24.004 20.672 24.004C19.2 24.004 18.08 22.836 18.08 21.412C18.08 19.988 19.2 18.82 20.672 18.82ZM25.328 15.7H6.672V16.772H25.328V15.7ZM19.44 8.324C19.331 8.09057 19.1419 7.90403 18.907 7.79832C18.672 7.69261 18.407 7.67475 18.16 7.748L16 8.5L13.84 7.748L13.776 7.7C13.5242 7.64589 13.2613 7.68396 13.0352 7.80729C12.8092 7.93062 12.6348 8.131 12.544 8.372L10.176 14.628H21.824L19.456 8.372L19.44 8.324Z" fill="white"/>
</svg>
